HIERARCHY
ROOT Pelvis
{
	OFFSET 0.000000 0.000000 0.000000
	CHANNELS 6 Xposition Yposition Zposition Xrotation Yrotation Zrotation
	JOINT LeftUpLeg_virtual
	{
		OFFSET 0.000000 0.000000 0.000000
		CHANNELS 3 Xrotation Yrotation Zrotation
		JOINT LeftUpLeg
		{
			OFFSET 18.735201 -5.666702 -4.541200
			CHANNELS 3 Xrotation Yrotation Zrotation
			JOINT LeftLeg
			{
				OFFSET -0.021200 -31.938179 0.493100
				CHANNELS 3 Xrotation Yrotation Zrotation
				JOINT LeftFoot
				{
					OFFSET 0.021200 -31.938179 -4.336299
					CHANNELS 3 Xrotation Yrotation Zrotation
					JOINT LeftToeBase
					{
						OFFSET 0.943001 -26.722000 15.023500
						CHANNELS 3 Xrotation Yrotation Zrotation
						End Site
						{
							OFFSET 0 0 0
						}
					}
				}
			}
		}
	}
	JOINT RightUpLeg_virtual
	{
		OFFSET 0.000000 0.000000 0.000000
		CHANNELS 3 Xrotation Yrotation Zrotation
		JOINT RightUpLeg
		{
			OFFSET -18.735201 -5.666702 -4.541200
			CHANNELS 3 Xrotation Yrotation Zrotation
			JOINT RightLeg
			{
				OFFSET 0.018946 -31.938133 0.493100
				CHANNELS 3 Xrotation Yrotation Zrotation
				JOINT RightFoot
				{
					OFFSET -0.018946 -31.938126 -4.336299
					CHANNELS 3 Xrotation Yrotation Zrotation
					JOINT RightToeBase
					{
						OFFSET -0.943001 -26.722004 15.023500
						CHANNELS 3 Xrotation Yrotation Zrotation
						End Site
						{
							OFFSET 0 0 0
						}
					}
				}
			}
		}
	}
	JOINT Hips_virtual
	{
		OFFSET 0.000000 0.000000 0.000000
		CHANNELS 3 Xrotation Yrotation Zrotation
		JOINT Hips
		{
			OFFSET -0.000000 -0.000000 -0.000000
			CHANNELS 3 Xrotation Yrotation Zrotation
			JOINT Spine
			{
				OFFSET 0.000000 10.199997 -0.299500
				CHANNELS 3 Xrotation Yrotation Zrotation
				JOINT Spine1
				{
					OFFSET 0.000000 11.900002 -1.516600
					CHANNELS 3 Xrotation Yrotation Zrotation
					JOINT Spine2
					{
						OFFSET 0.000000 13.600006 -2.842500
						CHANNELS 3 Xrotation Yrotation Zrotation
						JOINT Neck_virtual
						{
							OFFSET 0.000000 0.000000 0.000000
							CHANNELS 3 Xrotation Yrotation Zrotation
							JOINT Neck
							{
								OFFSET 0.000000 9.624100 -2.890100
								CHANNELS 3 Xrotation Yrotation Zrotation
								JOINT Head
								{
									OFFSET 0.000000 14.068802 -1.351900
									CHANNELS 3 Xrotation Yrotation Zrotation
									End Site
									{
										OFFSET 0 0 0
									}
								}
							}
						}
						JOINT LeftShoulder_virtual
						{
							OFFSET 0.000000 0.000000 0.000000
							CHANNELS 3 Xrotation Yrotation Zrotation
							JOINT LeftShoulder
							{
								OFFSET 15.263000 10.923401 -0.547700
								CHANNELS 3 Xrotation Yrotation Zrotation
								JOINT LeftArm
								{
									OFFSET 25.438599 -2.830597 -13.032500
									CHANNELS 3 Xrotation Yrotation Zrotation
									JOINT LeftForeArm
									{
										OFFSET 29.960503 0.000000 0.000000
										CHANNELS 3 Xrotation Yrotation Zrotation
										JOINT LeftHand
										{
											OFFSET 27.849251 0.000000 0.000000
											CHANNELS 3 Xrotation Yrotation Zrotation
											End Site
											{
												OFFSET 0 0 0
											}
										}
									}
								}
							}
						}
						JOINT RightShoulder_virtual
						{
							OFFSET 0.000000 0.000000 0.000000
							CHANNELS 3 Xrotation Yrotation Zrotation
							JOINT RightShoulder
							{
								OFFSET -15.263000 10.923401 -0.547700
								CHANNELS 3 Xrotation Yrotation Zrotation
								JOINT RightArm
								{
									OFFSET -25.438599 -2.830597 -13.032500
									CHANNELS 3 Xrotation Yrotation Zrotation
									JOINT RightForeArm
									{
										OFFSET -29.960503 0.000000 0.000000
										CHANNELS 3 Xrotation Yrotation Zrotation
										JOINT RightHand
										{
											OFFSET -27.849251 0.000000 0.000000
											CHANNELS 3 Xrotation Yrotation Zrotation
											End Site
											{
												OFFSET 0 0 0
											}
										}
									}
								}
							}
						}
					}
				}
			}
		}
	}
}
MOTION
Frames: 8
Frame Time: 0.03333333
43.969292 91.843674 21.279280 0.000000 0.000000 0.000000 9.571312 -42.073562 1.226843 -29.477314 0.808413 11.962625 36.195385 0.435428 -2.684420 -16.127523 1.912492 -8.487411 0.000000 0.000000 0.000000 9.613991 -8.892212 -0.465067 -19.479425 -7.864906 -17.168811 65.009174 -2.494855 0.181010 8.582869 -4.290490 10.257892 0.000000 0.000000 0.000000 11.286801 -7.042792 0.741172 -16.677672 -51.606696 -11.408771 4.620212 21.458258 2.346949 4.168106 11.313620 -1.010032 0.000000 0.000000 0.000000 5.643308 7.567377 -1.313073 -2.423128 1.821960 0.511091 0.000000 0.000000 0.000000 2.635175 8.303790 -4.155731 -2.904075 -6.005995 -9.021473 -11.835588 21.182404 -52.042394 -8.427942 -30.074303 -3.927113 0.000000 0.000000 0.000000 9.138856 5.990091 -0.646766 4.300446 -11.183540 23.892693 7.249891 10.957396 36.017609 13.092846 64.856772 -9.525255 0.000000 0.000000 0.000000 
44.224941 91.825394 22.488708 0.000000 0.000000 0.000000 9.308067 -41.479961 0.598193 -29.390987 1.100085 11.437282 36.010653 0.134844 -2.349150 -16.404412 1.494792 -8.201280 0.000000 0.000000 0.000000 8.561715 -5.983746 -0.712360 -20.889983 -6.840389 -17.048132 67.659840 -1.864466 -0.741160 10.975789 -2.941872 9.310791 0.000000 0.000000 0.000000 11.492103 -6.597460 0.712534 -16.089079 -51.117317 -11.133356 4.639024 20.674904 2.325242 4.204480 10.944541 -1.045078 0.000000 0.000000 0.000000 5.653667 7.639707 -1.303884 -2.437647 1.874387 0.532882 0.000000 0.000000 0.000000 2.715626 8.237858 -4.158209 -2.955034 -6.229609 -8.941842 -11.586477 20.183803 -51.959237 -8.164391 -31.190950 -3.815673 0.000000 0.000000 0.000000 9.161048 5.915872 -0.616521 4.311231 -11.574284 24.030354 7.520078 10.845940 36.465656 13.104806 65.185836 -9.304813 0.000000 0.000000 0.000000 
44.505676 91.846657 23.720732 0.000000 0.000000 0.000000 9.087162 -40.797495 0.021782 -29.259287 1.400701 10.951722 35.753947 -0.234919 -1.973919 -16.701735 1.000683 -7.906009 0.000000 0.000000 0.000000 7.509380 -2.940831 -0.851010 -22.309502 -5.803809 -16.832800 69.793489 -1.259642 -1.648803 13.011450 -1.647955 8.370588 0.000000 0.000000 0.000000 11.706718 -6.173761 0.684852 -15.447291 -50.600784 -10.880548 4.683574 19.826794 2.318441 4.253448 10.540910 -1.069767 0.000000 0.000000 0.000000 5.676276 7.698676 -1.298539 -2.444056 1.925428 0.551241 0.000000 0.000000 0.000000 2.809261 8.149005 -4.160597 -2.991224 -6.483905 -8.870198 -11.380935 19.059421 -51.878924 -7.901906 -32.430216 -3.716731 0.000000 0.000000 0.000000 9.193317 5.830910 -0.591364 4.330781 -11.935520 24.122811 7.695774 10.680684 36.871267 13.008865 65.443519 -9.017560 0.000000 0.000000 0.000000 
44.797230 91.906433 24.967960 0.000000 0.000000 0.000000 8.910953 -40.022388 -0.497470 -29.085623 1.710553 10.512376 35.416177 -0.671695 -1.563748 -17.024928 0.434276 -7.605130 0.000000 0.000000 0.000000 6.468560 0.092792 -0.883063 -23.719879 -4.797113 -16.545464 71.418193 -0.698866 -2.489130 14.651562 -0.461765 7.500974 0.000000 0.000000 0.000000 11.926840 -5.786125 0.658791 -14.770571 -50.063265 -10.663582 4.742424 18.911127 2.332641 4.309053 10.101495 -1.081430 0.000000 0.000000 0.000000 5.709663 7.741307 -1.297109 -2.442478 1.973337 0.566180 0.000000 0.000000 0.000000 2.914463 8.035030 -4.164828 -3.013318 -6.776228 -8.813866 -11.242080 17.808607 -51.809632 -7.652731 -33.797702 -3.639359 0.000000 0.000000 0.000000 9.237549 5.735499 -0.571030 4.361002 -12.261544 24.168450 7.777590 10.479023 37.208378 12.818381 65.636636 -8.682291 0.000000 0.000000 0.000000 
45.085793 91.997971 26.227491 0.000000 0.000000 0.000000 8.776041 -39.158164 -0.960437 -28.880208 2.029330 10.121812 34.994744 -1.171897 -1.127875 -17.377827 -0.197383 -7.306454 0.000000 0.000000 0.000000 5.453649 2.980137 -0.815787 -25.096034 -3.859387 -16.208100 72.558001 -0.200252 -3.216427 15.876126 0.568192 6.757283 0.000000 0.000000 0.000000 12.146619 -5.443732 0.634734 -14.078880 -49.506826 -10.490011 4.803740 17.930356 2.369913 4.364973 9.627692 -1.079525 0.000000 0.000000 0.000000 5.751758 7.765883 -1.299420 -2.433321 2.016861 0.577929 0.000000 0.000000 0.000000 3.029293 7.894235 -4.172385 -3.022417 -7.114949 -8.778007 -11.190228 16.431711 -51.762445 -7.428780 -35.297417 -3.593240 0.000000 0.000000 0.000000 9.294628 5.631098 -0.554755 4.402547 -12.545018 24.168373 7.762497 10.260629 37.458458 12.546686 65.777706 -8.315943 0.000000 0.000000 0.000000 
45.359379 92.110710 27.501488 0.000000 0.000000 0.000000 8.676198 -38.214147 -1.371972 -28.656004 2.356319 9.779251 34.494310 -1.731224 -0.678330 -17.761593 -0.885469 -7.020988 0.000000 0.000000 0.000000 4.481921 5.608302 -0.661577 -26.406867 -3.022173 -15.839980 73.233418 0.218494 -3.794359 16.674749 1.399122 6.181322 0.000000 0.000000 0.000000 12.358857 -5.150388 0.612952 -13.390174 -48.930335 -10.358912 4.857593 16.892292 2.427495 4.415684 9.123505 -1.065921 0.000000 0.000000 0.000000 5.800090 7.772033 -1.305133 -2.417220 2.055263 0.586882 0.000000 0.000000 0.000000 3.151697 7.725586 -4.184032 -3.019824 -7.508790 -8.764605 -11.240439 14.931097 -51.749710 -7.240361 -36.929501 -3.587403 0.000000 0.000000 0.000000 9.364653 5.520244 -0.541395 4.455134 -12.777531 24.126265 7.643117 10.043571 37.611041 12.203014 65.880569 -7.929890 0.000000 0.000000 0.000000 
45.608196 92.232430 28.796124 0.000000 0.000000 0.000000 8.605767 -37.203747 -1.738311 -28.424201 2.690469 9.481734 33.927308 -2.344491 -0.227745 -18.173503 -1.620175 -6.760366 0.000000 0.000000 0.000000 3.573427 7.897399 -0.437075 -27.617475 -2.307127 -15.456751 73.452483 0.540187 -4.196643 17.041821 1.994500 5.798693 0.000000 0.000000 0.000000 12.555962 -4.905108 0.593692 -12.717605 -48.331607 -10.260057 4.897796 15.808965 2.498154 4.457460 8.595031 -1.044626 0.000000 0.000000 0.000000 5.852015 7.760512 -1.313889 -2.394980 2.088221 0.593501 0.000000 0.000000 0.000000 3.279831 7.529046 -4.199724 -3.006709 -7.965411 -8.772129 -11.400774 13.312081 -51.782949 -7.095102 -38.688186 -3.628942 0.000000 0.000000 0.000000 9.447058 5.406155 -0.529698 4.517856 -12.951011 24.047494 7.409480 9.841173 37.663261 11.791022 65.956439 -7.528497 0.000000 0.000000 0.000000 
45.824196 92.351219 30.119276 0.000000 0.000000 0.000000 8.562227 -36.143162 -2.064596 -28.191030 3.030142 9.225630 33.313780 -3.004740 0.213019 -18.606170 -2.391022 -6.533567 0.000000 0.000000 0.000000 2.750009 9.802306 -0.161634 -28.692624 -1.725630 -15.070397 73.212477 0.748562 -4.407039 16.976654 2.325009 5.618602 0.000000 0.000000 0.000000 12.730939 -4.702849 0.577158 -12.068145 -47.708987 -10.175271 4.922547 14.695073 2.571742 4.488843 8.049712 -1.020978 0.000000 0.000000 0.000000 5.904895 7.732804 -1.325450 -2.367517 2.115623 0.598193 0.000000 0.000000 0.000000 3.412386 7.305931 -4.218712 -2.983738 -8.489417 -8.795990 -11.671500 11.583753 -51.870956 -6.997295 -40.560723 -3.722029 0.000000 0.000000 0.000000 9.540593 5.292157 -0.518634 4.589393 -13.059682 23.937931 7.052546 9.660004 37.618623 11.310012 66.010636 -7.110125 0.000000 0.000000 0.000000 
